<?xml version="1.0" standalone="no"?>
<!DOCTYPE svg PUBLIC "-//W3C//DTD SVG 20010904//EN"
 "http://www.w3.org/TR/2001/REC-SVG-20010904/DTD/svg10.dtd">
<svg version="1.0" xmlns="http://www.w3.org/2000/svg"
 width="500.000000pt" height="500.000000pt" viewBox="0 0 500.000000 500.000000"
 preserveAspectRatio="xMidYMid meet">
<metadata>
Created by potrace 1.14, written by Peter Selinger 2001-2017
</metadata>
<g transform="translate(0.000000,500.000000) scale(0.100000,-0.100000)"
fill="#000000" stroke="none">
<path d="M0 2500 l0 -2500 1147 0 1147 0 30 28 31 27 -24 -28 -24 -27 120 0
120 0 6 70 c3 38 11 78 17 87 10 16 11 16 6 -2 -3 -11 -8 -50 -12 -88 l-6 -67
30 0 c26 0 32 6 51 50 12 27 24 69 27 93 8 53 -12 121 -32 113 -10 -4 -11 0
-2 19 l11 24 20 -36 c11 -22 19 -57 19 -84 0 -48 -26 -144 -43 -154 -5 -4 -9
-10 -9 -16 0 -5 451 -9 1185 -9 l1185 0 0 2500 0 2500 -2500 0 -2500 0 0
-2500z m2242 2078 c-6 -22 -7 8 -4 87 l5 120 -22 -19 c-48 -43 -91 -149 -90
-221 0 -41 22 -100 36 -98 6 1 9 -6 6 -17 -3 -11 -7 -20 -8 -20 -2 0 -14 17
-26 37 -49 78 -19 218 67 313 l39 43 3 -96 c1 -53 -1 -111 -6 -129z m278 158
c0 -2 -8 -10 -17 -17 -16 -13 -17 -12 -4 4 13 16 21 21 21 13z m-76 -96 c-28
-43 -33 -107 -16 -202 7 -35 6 -48 -3 -52 -9 -3 -14 14 -19 56 -11 113 -8 141
24 191 16 26 32 47 35 47 3 0 -7 -18 -21 -40z m63 -57 c-3 -10 -5 -2 -5 17 0
19 2 27 5 18 2 -10 2 -26 0 -35z m411 -47 c49 -13 215 -86 209 -92 -3 -4 -88
17 -112 27 -17 8 -16 8 4 3 15 -4 21 -2 17 4 -12 20 -142 56 -226 62 l-85 7
70 1 c39 1 94 -5 123 -12z m-899 -65 c19 -14 52 -53 73 -85 21 -33 38 -53 38
-46 0 7 3 11 6 8 3 -4 -1 -19 -10 -35 -10 -18 -15 -22 -16 -11 0 9 -12 26 -27
39 -27 21 -27 21 -4 14 l25 -7 -20 29 c-34 52 -48 68 -85 96 -44 33 -52 34
-43 5 8 -28 4 -24 -24 25 l-22 39 37 -23 c21 -13 53 -34 72 -48z m478 47 c-3
-8 -6 -5 -6 6 -1 11 2 17 5 13 3 -3 4 -12 1 -19z m73 -68 c5 0 31 -13 57 -30
67 -43 115 -41 223 10 47 22 96 39 110 39 l25 -2 -25 -4 c-14 -3 -65 -23 -115
-46 -118 -54 -171 -56 -235 -9 -24 17 -53 32 -63 32 -17 0 -18 2 -6 16 8 10
15 12 17 5 2 -6 8 -11 12 -11z m499 -83 c1 -5 -3 -5 -9 -2 -5 3 -10 16 -9 28
0 21 1 21 9 2 5 -11 9 -24 9 -28z m-1034 0 c19 -4 19 -5 -1 -6 -11 0 -29 9
-40 22 -19 22 -19 22 1 6 11 -10 29 -19 40 -22z m1304 -37 c-34 -38 -64 -70
-66 -70 -3 0 19 28 47 62 46 55 50 63 33 69 -13 6 -9 8 15 8 l34 1 -63 -70z
m-92 20 c-54 -34 -90 -84 -84 -117 3 -15 -1 -23 -10 -23 -19 0 -10 44 16 80
21 29 98 90 114 90 6 0 -10 -13 -36 -30z m-170 -22 c-3 -8 -6 -5 -6 6 -1 11 2
17 5 13 3 -3 4 -12 1 -19z m-597 -9 c0 -6 -4 -7 -10 -4 -5 3 -10 11 -10 16 0
6 5 7 10 4 6 -3 10 -11 10 -16z m608 -78 c-3 -63 -6 -71 -27 -81 -20 -9 -22
-9 -13 2 6 8 9 24 5 36 -4 16 -2 22 8 20 10 -2 15 10 17 45 5 74 14 55 10 -22z
m-61 27 c-3 -7 -5 -2 -5 12 0 14 2 19 5 13 2 -7 2 -19 0 -25z m228 -18 c-3 -5
-12 -10 -18 -10 -7 0 -6 4 3 10 19 12 23 12 15 0z m-1165 -9 c0 -5 -7 -12 -16
-15 -14 -5 -15 -4 -4 9 14 17 20 19 20 6z m577 -7 c-3 -3 -12 -4 -19 -1 -8 3
-5 6 6 6 11 1 17 -2 13 -5z m-1310 -36 c-3 -7 -5 -2 -5 12 0 14 2 19 5 13 2
-7 2 -19 0 -25z m553 22 c0 -5 -5 -10 -11 -10 -5 0 -7 5 -4 10 3 6 8 10 11 10
2 0 4 -4 4 -10z m410 -18 c0 -8 -1 -13 -3 -11 -1 2 -9 12 -16 22 -12 15 -12
17 3 11 9 -3 16 -13 16 -22z m411 8 l24 -19 -24 -1 c-13 0 -21 3 -17 7 3 4 -4
13 -16 20 -17 9 -19 12 -7 13 9 0 27 -9 40 -20z m766 4 c-3 -3 -12 -4 -19 -1
-8 3 -5 6 6 6 11 1 17 -2 13 -5z m-83 -23 c-28 -13 -51 -35 -75 -72 -19 -30
-33 -57 -31 -61 1 -5 -2 -8 -8 -8 -17 0 -11 15 26 72 34 52 79 86 114 87 8 0
-3 -8 -26 -18z m-884 -25 c39 -9 53 -15 35 -15 -16 0 -57 6 -90 14 -72 18 -78
18 -70 4 4 -6 -3 -5 -14 3 -21 13 -21 13 6 19 15 3 37 1 48 -3 11 -5 49 -15
85 -22z m-1050 4 c0 -5 -4 -10 -10 -10 -5 0 -10 5 -10 10 0 6 5 10 10 10 6 0
10 -4 10 -10z m-311 -149 c0 -9 -9 13 -21 49 -11 36 -24 70 -29 76 -5 6 -6 14
-2 18 8 8 53 -117 52 -143z m1704 132 c14 -11 23 -31 24 -51 0 -18 9 -43 19
-55 17 -19 16 -19 -8 2 -16 14 -29 38 -33 62 -4 21 -14 43 -23 49 -10 5 -13
10 -9 10 5 0 19 -8 30 -17z m-796 1 c-3 -3 -12 -4 -19 -1 -8 3 -5 6 6 6 11 1
17 -2 13 -5z m-72 -34 c16 -16 48 -34 70 -39 l40 -11 -47 4 c-36 3 -56 11 -84
35 -26 23 -42 30 -57 26 -17 -5 -19 -4 -7 4 26 18 53 12 85 -19z m162 24 c-3
-3 -12 -4 -19 -1 -8 3 -5 6 6 6 11 1 17 -2 13 -5z m159 -40 c-10 -13 -22 -22
-27 -18 -6 3 -2 12 10 21 12 8 21 22 22 31 0 11 2 12 6 4 3 -7 -2 -24 -11 -38z
m687 39 c-7 -2 -21 -2 -30 0 -10 3 -4 5 12 5 17 0 24 -2 18 -5z m-1360 -10
c-7 -2 -21 -2 -30 0 -10 3 -4 5 12 5 17 0 24 -2 18 -5z m197 0 c0 -1 -9 -7
-19 -12 -14 -8 -30 -7 -58 4 l-38 14 57 -2 c32 -1 58 -3 58 -4z m1752 -35 c-7
-7 -12 -8 -12 -2 0 6 3 14 7 17 3 4 9 5 12 2 2 -3 -1 -11 -7 -17z m-2277 -120
c10 -20 22 -35 27 -32 4 3 5 -2 2 -10 -3 -9 -8 -16 -10 -16 -13 0 -54 113 -53
146 l2 39 7 -45 c3 -25 15 -62 25 -82z m1147 97 c-5 -28 33 -195 56 -240 21
-42 72 -105 84 -105 16 0 1 121 -23 186 -11 30 -36 77 -55 106 -19 28 -28 45
-20 39 29 -24 78 -112 97 -172 20 -63 26 -184 10 -193 -10 -7 -58 45 -98 105
-49 74 -85 299 -48 299 1 0 0 -11 -3 -25z m-1358 -143 c11 -22 23 -32 32 -28
11 4 14 -5 13 -42 -2 -33 -3 -38 -6 -17 -3 17 -15 41 -28 55 -33 35 -45 73
-44 138 l2 57 7 -65 c3 -36 14 -80 24 -98z m546 121 c-32 -41 -99 -83 -133
-83 -36 0 -107 20 -107 31 0 4 26 0 59 -9 71 -19 99 -10 157 49 44 46 54 50
24 12z m504 -30 c-7 -16 -14 -40 -14 -54 0 -15 -8 -35 -17 -46 -10 -10 -15
-14 -11 -8 3 5 9 28 13 50 7 36 29 85 40 85 2 0 -3 -12 -11 -27z m1260 -36 c9
-30 24 -65 33 -78 l16 -24 -26 24 c-15 14 -30 40 -33 60 -4 20 -13 44 -22 54
-13 15 -13 17 0 17 10 0 21 -20 32 -53z m-284 19 c0 -3 -4 -8 -10 -11 -5 -3
-10 -1 -10 4 0 6 5 11 10 11 6 0 10 -2 10 -4z m-1316 -28 c-3 -4 -9 -8 -15 -8
-5 0 -9 4 -9 8 0 5 7 9 15 9 8 0 12 -4 9 -9z m-904 -33 c-18 -19 -36 -32 -40
-30 -12 7 -83 -49 -134 -106 -27 -30 -40 -40 -28 -24 30 44 110 118 172 159
30 20 57 36 59 36 3 0 -10 -16 -29 -35z m2025 20 c-16 -8 -41 -22 -55 -32 -14
-10 -21 -12 -16 -5 11 18 67 52 86 52 8 -1 2 -7 -15 -15z m166 -8 c-10 -9 -11
-8 -5 6 3 10 9 15 12 12 3 -3 0 -11 -7 -18z m514 -17 c21 -22 37 -40 34 -40
-3 0 -23 18 -44 40 -21 22 -37 40 -34 40 3 0 23 -18 44 -40z m-1407 -15 c-26
-25 -53 -45 -60 -45 -7 0 1 8 17 19 17 10 41 30 54 45 14 14 27 26 30 26 3 0
-15 -21 -41 -45z m1122 35 c0 -5 -7 -10 -15 -10 -8 0 -15 5 -15 10 0 6 7 10
15 10 8 0 15 -4 15 -10z m-2173 -22 c-3 -8 -6 -5 -6 6 -1 11 2 17 5 13 3 -3 4
-12 1 -19z m2048 -39 c47 -66 31 -61 -22 6 -23 30 -36 52 -28 49 8 -3 30 -28
50 -55z m-134 33 c-7 -2 -18 1 -23 6 -8 8 -4 9 13 5 13 -4 18 -8 10 -11z
m-244 -9 c-4 -3 -1 -13 6 -22 11 -14 10 -14 -5 -2 -16 12 -16 31 -1 31 4 0 3
-3 0 -7z m-1969 -48 c-6 -14 -13 -23 -15 -21 -5 5 15 46 22 46 3 0 -1 -11 -7
-25z m117 15 c-3 -5 -12 -7 -20 -3 -21 7 -19 13 6 13 11 0 18 -4 14 -10z
m1150 -18 c-6 -7 -45 9 -45 18 0 4 11 3 24 -3 14 -7 23 -13 21 -15z m-1095 8
c18 -12 2 -12 -25 0 -13 6 -15 9 -5 9 8 0 22 -4 30 -9z m1937 4 c-3 -3 -12 -4
-19 -1 -8 3 -5 6 6 6 11 1 17 -2 13 -5z m596 -32 c-17 -3 -93 23 -93 32 0 2
25 -4 56 -13 30 -9 47 -17 37 -19z m-2454 -24 c35 -30 43 -56 12 -36 -11 7
-18 15 -15 19 2 4 -10 19 -28 34 -18 15 -26 23 -17 18 9 -4 30 -20 48 -35z
m501 33 c25 -7 25 -7 3 -13 -13 -3 -23 -2 -23 2 0 5 -12 11 -27 13 -26 4 -26
4 -3 5 14 0 36 -3 50 -7z m2498 -68 c-4 -59 -11 -91 -32 -132 -22 -43 -25 -55
-14 -62 9 -6 4 -9 -16 -9 -25 0 -28 3 -22 23 3 12 6 33 7 47 1 23 2 23 9 -5
l7 -30 23 50 c26 55 41 163 21 151 -8 -5 -8 -1 1 18 6 14 13 26 16 26 2 0 2
-35 0 -77z m-404 20 c13 -27 27 -59 31 -73 6 -22 4 -21 -19 9 -14 19 -23 38
-20 42 3 5 -2 22 -11 39 -8 16 -13 30 -10 30 2 0 15 -21 29 -47z m-572 10
c-48 -68 -75 -139 -80 -208 -5 -65 -4 -69 12 -56 28 23 64 92 80 151 8 30 15
45 15 33 2 -58 -86 -213 -121 -213 -7 0 -9 25 -6 73 5 75 33 146 85 215 29 39
42 43 15 5z m35 -35 c-2 -13 -4 -3 -4 22 0 25 2 35 4 23 2 -13 2 -33 0 -45z
m-2330 30 c-3 -8 -6 -5 -6 6 -1 11 2 17 5 13 3 -3 4 -12 1 -19z m184 5 c13
-16 12 -17 -3 -4 -10 7 -18 15 -18 17 0 8 8 3 21 -13z m2354 -43 c6 -20 5 -23
-6 -13 -7 7 -13 22 -14 33 -2 26 10 13 20 -20z m519 22 c3 -5 -1 -9 -9 -9 -8
0 -12 4 -9 9 3 4 7 8 9 8 2 0 6 -4 9 -8z m186 4 c0 -2 -8 -10 -17 -17 -16 -13
-17 -12 -4 4 13 16 21 21 21 13z m-3253 -58 c-2 -13 -4 -5 -4 17 -1 22 1 32 4
23 2 -10 2 -28 0 -40z m663 33 c-19 -10 -135 -22 -125 -13 3 4 32 10 63 13 31
3 62 7 67 7 6 1 3 -2 -5 -7z m-176 -27 c5 -14 4 -15 -9 -4 -17 14 -19 20 -6
20 5 0 12 -7 15 -16z m2728 4 c-6 -7 -12 -26 -15 -43 l-4 -30 -2 31 c0 16 4
35 11 42 16 16 23 15 10 0z m328 -18 c-97 -7 -151 -30 -195 -82 l-28 -33 59
-6 59 -6 -68 -1 -68 -2 15 28 c39 76 114 111 236 110 l75 -1 -85 -7z m-3230
-4 c0 -2 -8 -10 -17 -17 -16 -13 -17 -12 -4 4 13 16 21 21 21 13z m3340 -3 c0
-11 -163 -103 -192 -109 -15 -3 -11 0 10 10 45 21 156 89 160 99 2 4 8 7 13 7
5 0 9 -3 9 -7z m-3150 -83 l-8 -65 1 72 c1 40 5 69 8 65 4 -4 3 -36 -1 -72z
m-513 23 c-3 -10 -5 -4 -5 12 0 17 2 24 5 18 2 -7 2 -21 0 -30z m683 -66 c37
-60 113 -128 126 -114 11 11 -18 78 -57 130 l-40 52 37 -40 c38 -42 84 -127
84 -158 0 -16 -2 -17 -32 -1 -65 32 -98 66 -138 137 -22 40 -40 79 -39 87 0 9
4 6 9 -7 5 -12 27 -51 50 -86z m-1086 67 c3 -8 2 -12 -4 -9 -6 3 -10 10 -10
16 0 14 7 11 14 -7z m3407 -36 c13 -17 18 -29 12 -25 -28 18 -30 -66 -3 -110
25 -42 18 -42 -12 -1 -18 27 -23 46 -23 100 0 38 1 68 2 68 1 0 12 -14 24 -32z
m-3027 -30 c-12 -21 -38 -42 -70 -58 -28 -14 -58 -31 -68 -39 -15 -12 -16 -8
-14 55 2 64 2 65 5 16 2 -29 7 -52 11 -50 65 30 117 65 130 88 9 16 18 27 21
25 2 -2 -5 -19 -15 -37z m2906 32 c0 -5 -7 -10 -16 -10 -8 0 -12 5 -9 10 3 6
10 10 16 10 5 0 9 -4 9 -10z m-2541 -26 c22 5 23 5 8 -5 -11 -6 -32 -8 -50 -4
-18 3 -44 7 -59 8 -34 2 -35 5 -5 16 14 6 32 4 51 -6 16 -8 40 -12 55 -9z
m2958 -10 c-3 -3 -12 -4 -19 -1 -8 3 -5 6 6 6 11 1 17 -2 13 -5z m-3632 -24
c10 -11 16 -20 13 -20 -3 0 -13 9 -23 20 -10 11 -16 20 -13 20 3 0 13 -9 23
-20z m752 -57 c-2 -16 -4 -3 -4 27 0 30 2 43 4 28 2 -16 2 -40 0 -55z m2723
67 c0 -5 -7 -7 -15 -4 -8 4 -15 8 -15 10 0 2 7 4 15 4 8 0 15 -4 15 -10z
m-3002 -60 c-9 -13 -15 -16 -20 -7 -5 8 -13 6 -29 -8 -14 -12 -19 -14 -14 -5
16 29 24 36 49 38 23 2 25 0 14 -18z m-403 -97 c64 -32 77 -36 85 -23 5 8 10
11 10 5 0 -5 -4 -16 -9 -23 -14 -22 -154 49 -180 92 -12 18 -21 37 -21 42 0 5
9 -6 20 -24 14 -22 43 -44 95 -69z m3880 67 c-3 -5 -17 -10 -30 -10 -13 0 -54
-24 -94 -56 -39 -30 -71 -51 -71 -46 0 14 106 96 142 109 41 15 61 16 53 3z
m73 -7 c-10 -2 -26 -2 -35 0 -10 3 -2 5 17 5 19 0 27 -2 18 -5z m107 -31 c-3
-3 -11 0 -18 7 -9 10 -8 11 6 5 10 -3 15 -9 12 -12z m-4288 -80 c46 -29 86
-59 90 -65 4 -7 -4 -4 -17 5 -48 34 -159 98 -169 98 -6 0 -11 7 -11 16 0 17
-5 20 107 -54z m1991 12 c64 -31 98 -78 112 -157 43 -230 -200 -593 -471 -703
l-47 -18 53 -61 c29 -33 90 -112 136 -175 117 -161 148 -199 193 -232 53 -38
95 -37 141 3 27 24 39 29 47 21 24 -24 -64 -92 -117 -92 -70 0 -132 57 -280
260 -62 85 -136 179 -164 209 -45 49 -53 53 -82 47 -17 -3 -48 -6 -68 -6 l-37
0 -18 -72 c-20 -84 -120 -528 -129 -574 -5 -29 -4 -31 19 -26 31 6 31 -9 -2
-65 -17 -29 -31 -43 -42 -41 -36 7 -18 129 79 542 27 116 49 215 49 222 0 7
-17 18 -38 24 -48 12 -84 50 -84 86 0 43 27 57 99 51 l63 -5 10 37 c5 20 39
155 74 300 35 145 69 268 75 274 29 29 17 -49 -49 -318 -39 -162 -70 -299 -68
-304 2 -5 26 -25 55 -44 l51 -35 57 23 c91 37 163 86 236 159 259 260 306 596
91 656 -218 60 -640 -139 -747 -353 -28 -56 -34 -139 -14 -196 8 -22 8 -36 1
-43 -17 -17 -43 36 -49 100 -14 155 111 315 337 431 211 109 402 136 528 75z
m1467 16 c-27 -11 -59 -20 -70 -20 -25 1 72 38 100 39 11 0 -2 -9 -30 -19z
m-3548 -22 c-3 -8 -6 -5 -6 6 -1 11 2 17 5 13 3 -3 4 -12 1 -19z m3447 7 c-4
-8 -7 -15 -9 -15 -2 0 -5 7 -9 15 -3 9 0 15 9 15 9 0 12 -6 9 -15z m366 1 c0
-8 -7 -16 -15 -20 -12 -4 -13 -2 -2 14 14 24 17 25 17 6z m-3140 -5 c0 -6 -25
-36 -55 -69 -30 -33 -52 -61 -49 -64 3 -3 -2 -8 -10 -11 -27 -11 -4 28 54 91
62 67 60 66 60 53z m3001 -18 c13 -16 12 -17 -3 -4 -17 13 -22 21 -14 21 2 0
10 -8 17 -17z m417 10 c-10 -2 -28 -2 -40 0 -13 2 -5 4 17 4 22 1 32 -1 23 -4z
m-999 -29 c26 -22 31 -33 31 -70 0 -32 -4 -44 -15 -44 -10 0 -15 10 -15 28 0
103 -126 101 -345 -7 -309 -152 -537 -390 -495 -516 16 -47 42 -64 215 -135
204 -84 317 -144 371 -196 l45 -44 147 110 c137 102 171 120 178 95 2 -5 -68
-62 -154 -125 l-157 -116 -1 -64 c-1 -114 -72 -254 -189 -374 -86 -88 -198
-160 -287 -183 -62 -16 -67 -16 -92 0 -87 58 50 241 394 526 69 57 127 105
128 107 2 1 -15 20 -37 42 -51 49 -149 101 -355 186 -87 37 -172 76 -187 87
-68 48 -78 135 -26 233 109 205 545 485 759 486 46 0 62 -5 87 -26z m-2605 -2
c3 -5 -1 -9 -9 -9 -8 0 -12 4 -9 9 3 4 7 8 9 8 2 0 6 -4 9 -8z m3011 -20 c-3
-3 -11 0 -18 7 -9 10 -8 11 6 5 10 -3 15 -9 12 -12z m243 -7 c-1 -2 -16 -1
-31 2 -20 4 -25 8 -16 14 12 7 56 -8 47 -16z m-3593 -106 c39 -18 85 -25 85
-13 0 3 -5 14 -10 25 -18 33 -3 21 19 -16 l20 -35 -32 0 c-39 0 -125 41 -154
73 -11 12 -29 36 -39 52 -11 19 -2 12 26 -19 24 -27 62 -57 85 -67z m3392 105
c-3 -3 -12 -4 -19 -1 -8 3 -5 6 6 6 11 1 17 -2 13 -5z m118 -4 c-11 -5 -40 -8
-65 -8 l-45 1 50 7 c72 10 83 10 60 0z m471 -68 c1 -87 2 -89 36 -129 l32 -38
-33 30 c-18 17 -38 39 -44 50 -14 26 -16 168 -2 154 6 -6 10 -36 11 -67z
m-280 30 c-3 -2 6 -34 19 -71 13 -36 18 -57 10 -47 -8 10 -22 42 -31 70 -9 28
-20 55 -25 61 -18 19 -8 28 11 10 11 -10 18 -20 16 -23z m129 18 c-3 -5 -11
-10 -16 -10 -6 0 -7 5 -4 10 3 6 11 10 16 10 6 0 7 -4 4 -10z m-3025 -28 c60
-24 119 -66 108 -77 -4 -4 -41 -12 -83 -18 -75 -11 -80 -10 -175 22 -54 18
-108 43 -119 55 -23 25 -26 36 -10 36 5 0 8 -4 4 -9 -15 -26 169 -83 264 -83
103 1 110 14 26 54 -56 26 -88 33 -165 39 l-95 7 95 -2 c68 -2 110 -9 150 -24z
m2857 -14 c-3 -8 -6 -5 -6 6 -1 11 2 17 5 13 3 -3 4 -12 1 -19z m458 -28 c21
-22 37 -40 34 -40 -3 0 -23 18 -44 40 -21 22 -37 40 -34 40 3 0 23 -18 44 -40z
m-480 -24 c-40 -27 -152 -132 -174 -162 -29 -42 -64 -134 -50 -134 14 0 89 52
116 81 12 13 38 51 57 83 20 33 36 56 36 50 0 -22 -62 -113 -107 -155 -57 -55
-119 -94 -127 -80 -4 5 4 40 16 78 19 59 32 78 98 145 42 42 91 83 110 91 44
19 50 20 25 3z m-3285 0 c0 -2 -9 -6 -20 -9 -11 -3 -18 -1 -14 4 5 9 34 13 34
5z m47 -12 c-3 -3 -12 -4 -19 -1 -8 3 -5 6 6 6 11 1 17 -2 13 -5z m33 -24 c7
-13 7 -26 2 -37 -7 -12 -10 -8 -14 21 -5 41 -3 44 12 16z m3750 -31 c30 -58
60 -183 59 -243 -1 -47 -1 -49 -10 -21 -6 17 -10 50 -10 75 1 51 -22 136 -50
192 -11 21 -17 38 -14 38 2 0 14 -18 25 -41z m-4039 4 c13 -16 12 -17 -3 -4
-10 7 -18 15 -18 17 0 8 8 3 21 -13z m76 -45 c-2 -13 -4 -5 -4 17 -1 22 1 32
4 23 2 -10 2 -28 0 -40z m-46 5 c7 -7 -2 -12 -28 -16 -23 -4 -49 -17 -63 -32
-17 -19 -33 -25 -59 -23 l-36 1 35 4 c19 3 49 17 67 34 l34 29 -53 0 c-33 0
-70 -9 -98 -22 l-45 -21 30 -7 c24 -6 20 -8 -25 -8 l-55 -1 50 26 c28 15 70
32 95 39 50 14 136 12 151 -3z m304 -3 c10 -11 16 -20 13 -20 -3 0 -13 9 -23
20 -10 11 -16 20 -13 20 3 0 13 -9 23 -20z m3365 -14 c0 22 3 26 10 14 13 -20
13 -80 0 -80 -5 0 -10 5 -10 12 0 7 -15 28 -32 48 l-33 35 33 -29 32 -30 0 30z
m286 -47 c3 -6 -5 -3 -20 6 -14 10 -26 19 -26 22 0 7 39 -17 46 -28z m-3673
-83 c21 -19 37 -38 37 -42 0 -5 -21 12 -45 38 -36 37 -45 54 -44 80 l1 33 8
-38 c4 -25 19 -49 43 -71z m-246 37 c-3 -10 -5 -2 -5 17 0 19 2 27 5 18 2 -10
2 -26 0 -35z m3963 12 c13 -14 21 -25 18 -25 -2 0 -15 11 -28 25 -13 14 -21
25 -18 25 2 0 15 -11 28 -25z m-3813 -7 c-3 -8 -6 -5 -6 6 -1 11 2 17 5 13 3
-3 4 -12 1 -19z m3520 0 c-3 -8 -6 -5 -6 6 -1 11 2 17 5 13 3 -3 4 -12 1 -19z
m-3527 -27 c0 -23 -55 -71 -90 -81 -28 -8 -41 -18 -48 -38 -8 -22 -11 -23 -11
-7 -1 33 26 62 63 69 22 4 44 18 58 36 26 32 28 34 28 21z m3695 -1 c3 -5 -1
-10 -9 -10 -9 0 -16 5 -16 10 0 6 4 10 9 10 6 0 13 -4 16 -10z m-166 -77 c-1
-32 -4 -48 -6 -36 -6 30 -31 19 -49 -21 -12 -28 -13 -29 -14 -8 0 14 12 35 30
50 17 15 30 36 30 49 0 13 2 23 5 23 3 0 4 -26 4 -57z m-3371 -20 c-6 -7 -14
-10 -19 -7 -15 9 -10 20 10 20 15 0 17 -3 9 -13z m3632 -28 c-24 -25 -46 -45
-49 -45 -3 0 7 13 22 28 15 15 27 33 27 39 0 10 7 13 40 22 2 0 -16 -19 -40
-44z m-371 -80 c7 -7 -9 -2 -38 11 -28 14 -51 27 -51 29 0 7 75 -26 89 -40z
m254 15 c-3 -11 -10 -20 -15 -20 -5 0 -6 -5 -2 -11 4 -7 -1 -7 -16 1 l-22 12
28 18 c16 10 30 19 31 19 0 1 -1 -8 -4 -19z m43 5 c-11 -8 -25 -15 -30 -15 -6
1 0 7 14 15 32 19 40 18 16 0z m-3889 -22 c-12 -29 -37 -60 -37 -47 0 3 -8 0
-17 -7 -10 -8 -6 1 7 20 14 18 29 39 35 47 17 24 25 15 12 -13z m108 -33 c3
-5 -1 -10 -9 -10 -9 0 -16 5 -16 10 0 6 4 10 9 10 6 0 13 -4 16 -10z m3910 -5
c26 -13 26 -14 5 -9 -14 3 -33 8 -43 11 -30 8 -79 -7 -73 -23 4 -11 0 -11 -19
2 -23 15 -37 33 -15 19 5 -3 18 -1 27 4 25 15 83 13 118 -4z m-480 -25 c10
-11 16 -20 13 -20 -3 0 -13 9 -23 20 -10 11 -16 20 -13 20 3 0 13 -9 23 -20z
m82 -22 c-3 -8 -6 -5 -6 6 -1 11 2 17 5 13 3 -3 4 -12 1 -19z m474 5 c13 -16
12 -17 -3 -4 -17 13 -22 21 -14 21 2 0 10 -8 17 -17z m-4134 -70 c-2 -16 -4
-3 -4 27 0 30 2 43 4 28 2 -16 2 -40 0 -55z m4032 30 c2 -2 0 -3 -6 -3 -6 0
-21 9 -34 21 l-24 20 30 -17 c17 -10 32 -19 34 -21z m-4091 -8 c-6 -14 -13
-23 -15 -21 -5 5 15 46 22 46 3 0 -1 -11 -7 -25z m3732 6 c0 -6 15 -12 33 -14
l32 -4 -31 -1 c-18 -1 -37 5 -44 13 -9 10 -9 15 -1 15 6 0 11 -4 11 -9z
m-3653 -38 c-3 -10 -5 -4 -5 12 0 17 2 24 5 18 2 -7 2 -21 0 -30z m4129 21
c26 -5 35 -4 30 5 -4 6 -5 11 -2 11 3 0 10 -8 15 -18 9 -17 6 -17 -66 -5 -42
7 -79 16 -82 19 -6 6 10 4 105 -12z m-4126 -91 c0 -44 -5 -41 -14 10 -5 27 -4
37 3 32 6 -3 11 -22 11 -42z m3685 -10 c-9 -15 -13 -19 -9 -8 3 11 8 29 9 40
5 29 7 32 12 13 2 -9 -3 -29 -12 -45z m-3808 -5 c-3 -8 -6 -5 -6 6 -1 11 2 17
5 13 3 -3 4 -12 1 -19z m3633 7 c-98 -12 -187 -46 -174 -67 11 -18 152 -4 209
20 30 13 42 16 30 7 -46 -36 -185 -57 -253 -39 -29 8 -15 27 42 56 61 31 84
36 166 36 l75 -1 -95 -12z m101 -18 c-10 -9 -11 -8 -5 6 3 10 9 15 12 12 3 -3
0 -11 -7 -18z m390 6 c9 -9 0 -9 -32 -1 -24 5 -61 8 -81 6 -21 -2 -38 0 -38 5
0 13 137 4 151 -10z m-4001 -72 c-7 -26 -22 -49 -42 -63 -16 -13 -34 -32 -37
-42 -5 -13 -10 -15 -15 -8 -4 6 11 28 34 51 23 22 46 56 51 76 6 20 13 35 15
32 3 -3 0 -23 -6 -46z m3657 -28 c-3 -10 -5 -2 -5 17 0 19 2 27 5 18 2 -10 2
-26 0 -35z m-3508 -55 c-4 -69 -11 -104 -27 -136 -13 -23 -20 -47 -17 -52 3
-6 1 -10 -4 -10 -18 0 -13 28 14 78 20 37 25 61 25 116 0 64 -1 68 -17 55 -10
-7 -7 -1 6 14 14 15 25 27 25 27 1 0 -2 -42 -5 -92z m3733 52 c-38 -29 -67
-76 -73 -118 l-8 -47 3 53 c3 44 9 59 35 86 17 17 31 38 31 46 0 13 2 13 10 0
5 -8 6 -17 2 -20z m-4117 10 c3 -5 -1 -10 -9 -10 -9 0 -16 5 -16 10 0 6 4 10
9 10 6 0 13 -4 16 -10z m3918 -83 c7 4 5 -2 -3 -13 -8 -10 -16 -21 -17 -23 -2
-2 -3 9 -2 25 0 16 3 23 6 16 2 -6 10 -9 16 -5z m244 -89 c-2 -13 -4 -3 -4 22
0 25 2 35 4 23 2 -13 2 -33 0 -45z m-4075 -7 c35 -5 69 -6 76 -4 6 3 12 0 12
-7 0 -19 -128 -2 -167 22 -18 11 -33 22 -33 25 0 3 11 -2 25 -11 13 -9 53 -20
87 -25z m651 20 c16 -16 -7 -34 -82 -62 -73 -27 -211 -24 -239 6 -16 18 -16
18 0 6 13 -10 46 -12 120 -9 83 3 112 9 148 27 44 23 44 24 20 33 -14 5 -63 8
-109 6 -49 -3 -77 -1 -65 4 29 12 192 4 207 -11z m-483 -17 c0 -8 -4 -12 -10
-9 -5 3 -10 10 -10 16 0 5 5 9 10 9 6 0 10 -7 10 -16z m4010 6 c0 -5 -4 -10
-10 -10 -5 0 -10 5 -10 10 0 6 5 10 10 10 6 0 10 -4 10 -10z m-200 -60 c0 -5
-2 -10 -4 -10 -3 0 -8 5 -11 10 -3 6 -1 10 4 10 6 0 11 -4 11 -10z m-4126 -55
c84 -23 65 -27 -23 -5 -41 11 -78 17 -82 15 -4 -3 -9 1 -12 9 -4 11 1 12 26 5
18 -5 58 -16 91 -24z m4133 13 c-3 -8 -6 -5 -6 6 -1 11 2 17 5 13 3 -3 4 -12
1 -19z m-20 -50 c-2 -13 -4 -3 -4 22 0 25 2 35 4 23 2 -13 2 -33 0 -45z
m-3734 5 c-7 -2 -19 -2 -25 0 -7 3 -2 5 12 5 14 0 19 -2 13 -5z m67 -52 c0
-45 -6 -37 -13 18 -4 29 -2 40 4 30 5 -7 9 -29 9 -48z m3724 37 c-4 -7 -21
-32 -37 -55 -32 -45 -52 -52 -23 -9 9 14 16 33 16 43 0 14 2 15 9 4 7 -11 11
-9 20 8 7 11 14 21 17 21 3 0 2 -6 -2 -12z m-3992 -68 c4 -3 -22 -6 -58 -8
-68 -4 -137 20 -166 56 -8 11 -2 9 18 -6 41 -28 113 -47 148 -38 l29 7 -29 32
c-28 31 -28 31 11 -3 22 -19 43 -37 47 -40z m3818 26 c0 -3 -4 -8 -10 -11 -5
-3 -10 -1 -10 4 0 6 5 11 10 11 6 0 10 -2 10 -4z m-3756 -64 c3 -5 -9 -19 -27
-32 -18 -14 -26 -17 -18 -7 17 22 3 22 -47 1 -20 -8 -32 -11 -27 -5 6 5 33 19
60 29 28 11 51 20 52 21 1 1 4 -3 7 -7z m273 -46 c11 -4 26 -13 33 -21 8 -9
-1 -8 -27 5 -22 10 -46 27 -54 37 -13 17 -13 17 6 2 11 -9 30 -20 42 -23z
m3583 9 c0 -8 -4 -15 -10 -15 -5 0 -7 7 -4 15 4 8 8 15 10 15 2 0 4 -7 4 -15z
m-3803 -17 c-3 -8 -6 -5 -6 6 -1 11 2 17 5 13 3 -3 4 -12 1 -19z m130 -10 c-3
-8 -6 -5 -6 6 -1 11 2 17 5 13 3 -3 4 -12 1 -19z m-344 -22 c-15 -19 -35 -37
-43 -41 -8 -3 3 12 25 34 48 50 57 53 18 7z m504 12 c-3 -8 -6 -5 -6 6 -1 11
2 17 5 13 3 -3 4 -12 1 -19z m-607 -54 c0 -11 11 -43 25 -70 22 -44 9 -37 -22
12 -9 16 -10 11 -6 -26 5 -51 19 -126 28 -155 6 -18 5 -18 -5 -3 -6 10 -17 52
-25 94 -17 88 -20 208 -5 184 5 -8 10 -24 10 -36z m407 -9 c-25 -21 -37 -41
-40 -65 -3 -30 -4 -28 -5 13 -2 35 2 47 12 47 8 0 25 13 38 28 13 16 25 24 27
18 2 -5 -12 -24 -32 -41z m193 41 c0 -3 -4 -8 -10 -11 -5 -3 -10 -1 -10 4 0 6
5 11 10 11 6 0 10 -2 10 -4z m3590 -30 c0 -3 -4 -8 -10 -11 -5 -3 -10 -1 -10
4 0 6 5 11 10 11 6 0 10 -2 10 -4z m-410 -27 c0 -6 -5 -7 -12 -3 -6 4 -17 -1
-25 -11 -7 -11 -13 -15 -13 -10 0 5 7 17 16 26 17 18 34 17 34 -2z m279 -17
c-7 -12 -28 -23 -50 -26 -44 -7 -80 -41 -96 -93 -6 -21 -12 -29 -12 -19 -2 33
40 106 68 120 14 8 41 17 59 21 17 3 32 11 32 17 0 6 3 9 6 6 3 -3 0 -15 -7
-26z m-3184 -61 c-36 -102 -69 -145 -176 -225 -60 -45 -92 -56 -104 -36 -3 6
1 7 10 4 32 -13 185 128 226 207 16 32 29 63 29 69 0 24 -105 -48 -163 -110
-57 -61 -59 -62 -26 -16 49 70 184 166 211 150 4 -3 1 -22 -7 -43z m2980 -54
c4 -15 5 -32 2 -39 -3 -7 -6 -1 -6 15 -1 17 -15 43 -41 71 -52 56 -52 69 -1
18 22 -22 43 -51 46 -65z m-128 41 c-2 -13 -4 -5 -4 17 -1 22 1 32 4 23 2 -10
2 -28 0 -40z m-3656 -25 c13 -16 12 -17 -3 -4 -10 7 -18 15 -18 17 0 8 8 3 21
-13z m286 -5 c-3 -8 -6 -5 -6 6 -1 11 2 17 5 13 3 -3 4 -12 1 -19z m-197 -65
c0 -7 -58 36 -66 49 -4 7 9 -1 29 -16 20 -16 37 -30 37 -33z m3907 20 c-3 -10
-5 -4 -5 12 0 17 2 24 5 18 2 -7 2 -21 0 -30z m-3667 -2 c8 -15 8 -21 1 -17
-7 5 -11 -6 -12 -31 -1 -37 -1 -37 -9 -9 -7 23 -3 94 5 84 1 -2 8 -14 15 -27z
m3570 6 c0 -2 -10 -12 -22 -23 l-23 -19 19 23 c18 21 26 27 26 19z m275 -17
c-3 -5 -11 -10 -17 -10 -6 0 -26 -14 -46 -31 l-36 -32 75 5 c45 3 88 12 109
23 l35 19 -30 7 c-23 5 -18 7 22 6 60 -2 59 -4 -24 -41 -80 -34 -219 -43 -234
-13 -8 15 -5 17 25 17 22 0 45 9 63 24 23 19 43 31 61 35 2 1 0 -3 -3 -9z m48
-7 c-7 -2 -19 -2 -25 0 -7 3 -2 5 12 5 14 0 19 -2 13 -5z m-4059 -68 c17 -25
21 -44 21 -116 0 -63 -3 -85 -12 -82 -9 3 -11 26 -7 78 5 81 -5 116 -44 160
-22 24 -23 26 -3 10 13 -11 33 -33 45 -50z m3823 23 c-3 -7 -5 -2 -5 12 0 14
2 19 5 13 2 -7 2 -19 0 -25z m-272 2 c10 -11 16 -20 13 -20 -3 0 -13 9 -23 20
-10 11 -16 20 -13 20 3 0 13 -9 23 -20z m-3741 -26 c3 -8 2 -12 -4 -9 -6 3
-10 10 -10 16 0 14 7 11 14 -7z m470 -67 c8 -23 20 -62 26 -86 9 -33 14 -41
21 -30 7 11 9 11 9 -3 0 -22 -15 -31 -28 -15 -5 6 -15 39 -22 72 -6 33 -21 75
-32 94 -13 24 -15 31 -4 22 8 -7 22 -31 30 -54z m1454 38 c-3 -3 -9 2 -12 12
-6 14 -5 15 5 6 7 -7 10 -15 7 -18z m310 0 c-3 -3 -9 2 -12 12 -6 14 -5 15 5
6 7 -7 10 -15 7 -18z m1552 -15 c0 -11 11 -22 28 -28 15 -6 20 -11 11 -11 -8
-1 -22 5 -31 12 -19 14 -36 63 -19 53 6 -4 11 -16 11 -26z m-1773 -27 c-3 -10
-5 -2 -5 17 0 19 2 27 5 18 2 -10 2 -26 0 -35z m310 0 c-3 -10 -5 -2 -5 17 0
19 2 27 5 18 2 -10 2 -26 0 -35z m1841 -11 c76 -5 163 -78 208 -176 21 -45 32
-106 19 -106 -8 0 -140 93 -168 119 -16 14 -33 34 -39 44 -5 10 8 1 29 -20 21
-21 69 -57 106 -80 76 -48 83 -42 43 42 -26 55 -82 117 -124 139 -36 17 -90
27 -94 17 -2 -5 -18 12 -36 38 -28 39 -29 42 -5 15 19 -20 39 -31 61 -32z
m-2081 16 c-3 -7 -5 -2 -5 12 0 14 2 19 5 13 2 -7 2 -19 0 -25z m310 0 c-3 -7
-5 -2 -5 12 0 14 2 19 5 13 2 -7 2 -19 0 -25z m1138 -3 c81 -31 141 -61 150
-76 4 -6 -6 -4 -21 4 -74 37 -214 77 -271 77 -96 0 -100 -21 -14 -65 56 -28
91 -37 191 -45 l95 -8 -100 3 c-112 3 -171 20 -249 75 -65 44 -49 56 85 59 49
1 84 -6 134 -24z m472 -17 c-3 -8 -6 -5 -6 6 -1 11 2 17 5 13 3 -3 4 -12 1
-19z m-3932 -18 c10 -11 16 -20 13 -20 -3 0 -13 9 -23 20 -10 11 -16 20 -13
20 3 0 13 -9 23 -20z m3825 15 c0 -2 -10 -9 -21 -16 -13 -6 -19 -7 -15 -1 3 6
0 13 -6 15 -7 3 -1 6 15 6 15 1 27 -1 27 -4z m-1982 -22 c-10 -2 -28 -2 -40 0
-13 2 -5 4 17 4 22 1 32 -1 23 -4z m310 0 c-10 -2 -28 -2 -40 0 -13 2 -5 4 17
4 22 1 32 -1 23 -4z m1588 -35 c-15 -28 -136 -148 -136 -136 0 5 26 35 58 67
31 33 63 66 70 75 18 23 23 20 8 -6z m-3818 -17 c3 -8 -1 -12 -9 -9 -7 2 -15
10 -17 17 -3 8 1 12 9 9 7 -2 15 -10 17 -17z m3709 -7 c-3 -3 -12 -4 -19 -1
-8 3 -5 6 6 6 11 1 17 -2 13 -5z m-3317 -34 c0 -5 -4 -10 -10 -10 -5 0 -10 5
-10 10 0 6 5 10 10 10 6 0 10 -4 10 -10z m235 -28 c6 -4 26 -25 45 -47 l35
-40 -40 36 c-22 20 -49 41 -60 47 -14 8 -15 11 -5 12 8 0 20 -4 25 -8z m-72
-35 c-15 -19 -30 -32 -32 -30 -5 3 49 63 57 63 2 0 -9 -15 -25 -33z m-315 6
c-10 -2 -26 -2 -35 0 -10 3 -2 5 17 5 19 0 27 -2 18 -5z m47 -38 c-22 -20 -63
-47 -92 -61 -44 -22 -58 -24 -100 -18 l-48 8 65 6 c53 5 75 13 119 43 29 20
58 37 63 37 5 0 6 5 3 10 -3 6 2 10 12 10 13 -1 8 -10 -22 -35z m3760 -19 c78
-38 97 -55 120 -110 21 -50 14 -57 -8 -7 -22 48 -36 60 -124 106 -47 23 -73
43 -73 53 0 12 3 13 8 5 4 -7 39 -28 77 -47z m-4046 0 c-8 -8 -78 -10 -85 -3
-4 4 14 7 41 7 27 0 46 -2 44 -4z m800 -8 c21 7 49 12 62 11 16 0 10 -5 -21
-15 -58 -18 -91 -18 -116 1 -18 14 -17 14 8 4 21 -9 37 -9 67 -1z m118 -15
c-3 -3 -11 -2 -17 2 -9 6 -9 10 1 16 14 8 27 -7 16 -18z m-270 -15 c-3 -8 -6
-5 -6 6 -1 11 2 17 5 13 3 -3 4 -12 1 -19z m2319 -11 c73 -50 164 -212 135
-240 -10 -9 -11 -8 -6 5 15 40 -133 248 -176 248 -28 0 25 -113 82 -177 l43
-48 -42 40 c-64 59 -129 205 -93 205 5 0 31 -15 57 -33z m384 3 c0 -5 -7 -7
-15 -4 -8 4 -15 8 -15 10 0 2 7 4 15 4 8 0 15 -4 15 -10z m-19 -117 c-8 -14
-10 -6 -10 37 1 55 1 55 11 18 7 -25 6 -43 -1 -55z m349 63 c-14 -13 -35 -27
-48 -31 -21 -6 -22 -5 -10 14 7 11 15 16 19 10 3 -6 15 -2 30 10 33 28 39 26
9 -3z m-2914 -32 c11 -27 12 -43 3 -79 -6 -24 -9 -51 -5 -60 10 -26 -1 -16
-23 20 -11 19 -15 34 -9 32 21 -4 30 60 14 98 -9 20 -10 33 -5 29 6 -3 17 -22
25 -40z m3279 26 c10 -11 16 -20 13 -20 -3 0 -13 9 -23 20 -10 11 -16 20 -13
20 3 0 13 -9 23 -20z m-2499 -143 c-18 -45 -86 -151 -92 -145 -2 3 14 37 37
76 41 71 58 123 59 176 l0 30 -32 -30 c-32 -28 -32 -28 2 9 l35 38 3 -60 c2
-36 -3 -73 -12 -94z m2400 135 c-3 -5 -34 -23 -70 -40 -35 -17 -71 -41 -80
-53 -9 -13 -16 -18 -16 -12 0 26 53 72 100 88 27 9 53 21 56 26 3 6 8 8 11 5
3 -2 2 -9 -1 -14z m170 -54 l29 -33 -32 29 c-31 28 -38 36 -30 36 2 0 16 -15
33 -32z m-3558 -15 c-20 -3 -30 -12 -34 -31 -10 -41 -17 -48 -25 -26 -6 16
-11 9 -32 -36 -14 -30 -29 -77 -33 -105 l-7 -50 24 20 24 20 -16 -20 c-9 -11
-22 -29 -28 -40 -10 -17 -11 -9 -8 46 5 67 45 176 74 200 11 10 11 14 1 20 -8
5 7 8 37 7 29 0 38 -3 23 -5z m57 -3 c3 -5 1 -10 -4 -10 -6 0 -11 5 -11 10 0
6 2 10 4 10 3 0 8 -4 11 -10z m858 -25 c-9 -19 -18 -33 -21 -31 -4 5 26 66 33
66 3 0 -3 -16 -12 -35z m2017 15 c46 -25 28 -25 -35 0 -36 14 -43 19 -25 19
14 0 41 -8 60 -19z m-3047 2 c-18 -2 -33 -7 -33 -12 0 -5 -14 -25 -31 -44 -43
-49 -120 -76 -212 -75 l-72 2 81 7 c91 8 162 36 195 78 l20 26 -23 9 c-47 18
-126 2 -216 -43 -48 -25 -90 -48 -93 -53 -4 -5 -12 -6 -19 -2 -14 8 117 79
185 101 23 7 85 11 145 11 58 -1 90 -3 73 -5z m2877 4 c0 -2 -8 -10 -17 -17
-16 -13 -17 -12 -4 4 13 16 21 21 21 13z m-92 -76 c-7 -10 -14 -18 -15 -16 -6
6 9 36 18 36 5 0 4 -9 -3 -20z m-1781 -12 c-3 -8 -6 -5 -6 6 -1 11 2 17 5 13
3 -3 4 -12 1 -19z m2763 -5 c0 -21 -3 -24 -9 -14 -5 8 -7 20 -4 28 8 21 13 15
13 -14z m-3285 -42 c2 -10 11 -33 19 -50 9 -17 14 -31 11 -31 -6 0 -50 88 -60
120 l-7 25 17 -23 c9 -12 18 -31 20 -41z m2842 22 c-3 -10 -5 -4 -5 12 0 17 2
24 5 18 2 -7 2 -21 0 -30z m-1768 -8 c45 -52 71 -107 87 -192 14 -73 19 -141
9 -132 -2 3 -13 51 -24 108 -20 100 -44 158 -91 211 l-21 25 4 -87 c3 -75 8
-97 38 -157 19 -39 30 -66 23 -60 -20 16 -65 127 -76 187 -11 59 -5 132 11
132 5 0 23 -16 40 -35z m-1469 2 c0 -7 -7 -22 -15 -33 -13 -17 -13 -16 -3 14
13 34 18 40 18 19z m907 -19 c-3 -7 -5 -2 -5 12 0 14 2 19 5 13 2 -7 2 -19 0
-25z m2006 17 c-3 -9 -8 -14 -10 -11 -3 3 -2 9 2 15 9 16 15 13 8 -4z m-2206
-17 c-3 -8 -6 -5 -6 6 -1 11 2 17 5 13 3 -3 4 -12 1 -19z m2383 12 c0 -5 -7
-10 -16 -10 -8 0 -12 5 -9 10 3 6 10 10 16 10 5 0 9 -4 9 -10z m-335 -33 c19
-4 19 -5 -1 -6 -12 0 -28 7 -35 17 -12 15 -12 16 1 6 8 -7 24 -14 35 -17z
m472 -24 c-3 -10 -5 -2 -5 17 0 19 2 27 5 18 2 -10 2 -26 0 -35z m-577 27 c-8
-5 -42 -9 -75 -8 l-60 1 60 7 c100 11 92 11 75 0z m720 -9 c-5 -11 -15 -23
-21 -27 -6 -3 -3 5 6 20 20 30 30 35 15 7z m-3180 -1 c0 -5 -5 -10 -11 -10 -5
0 -7 5 -4 10 3 6 8 10 11 10 2 0 4 -4 4 -10z m114 -6 c3 -8 2 -12 -4 -9 -6 3
-10 10 -10 16 0 14 7 11 14 -7z m2643 -35 l28 -9 -27 4 c-38 5 -35 -6 10 -37
67 -47 128 -62 96 -24 -10 12 -4 9 14 -7 17 -16 30 -31 29 -33 -11 -10 -114
34 -156 67 l-51 40 0 -36 c0 -24 8 -46 25 -66 13 -16 29 -47 35 -70 12 -42 6
-123 -11 -148 -9 -14 -6 13 8 63 9 33 -17 125 -42 149 -25 23 -32 67 -19 116
5 17 10 20 20 12 7 -6 25 -16 41 -21z m-2059 -64 c12 -15 21 -30 18 -32 -5 -5
-14 6 -61 72 -35 49 -19 34 43 -40z m2133 48 c13 -17 13 -17 -6 -3 -11 8 -22
16 -24 17 -2 2 0 3 6 3 6 0 17 -8 24 -17z m196 -5 c-3 -8 -6 -5 -6 6 -1 11 2
17 5 13 3 -3 4 -12 1 -19z m88 -19 c-42 -43 -126 -104 -185 -134 l-35 -17 40
38 c23 22 49 50 59 64 18 25 18 25 1 -3 -9 -16 -15 -31 -12 -33 5 -6 116 76
141 104 11 12 22 22 25 22 3 0 -13 -18 -34 -41z m-890 11 c3 -5 -1 -10 -9 -10
-8 0 -18 5 -21 10 -3 6 1 10 9 10 8 0 18 -4 21 -10z m-1747 -83 l19 -57 -21 1
c-11 0 -16 3 -10 5 13 5 -8 90 -26 108 -6 6 -10 15 -10 20 0 25 31 -24 48 -77z
m1972 65 c0 -13 -12 -22 -22 -16 -10 6 -1 24 13 24 5 0 9 -4 9 -8z m-2154 -33
c16 -16 22 -28 14 -24 -13 5 -56 55 -47 55 2 0 16 -14 33 -31z m1431 1 c3 -10
2 -11 -4 -4 -4 7 -17 14 -28 17 -16 5 -15 5 4 4 14 -1 26 -9 28 -17z m-912
-10 c3 -6 -1 -7 -10 -4 -8 4 -23 0 -33 -7 -15 -13 -16 -12 -3 4 15 19 36 22
46 7z m153 -15 c-21 -14 -49 -24 -65 -24 l-28 2 30 4 c16 3 40 13 53 24 14 10
30 19 36 19 6 0 -6 -11 -26 -25z m735 3 c-6 -7 -13 -30 -17 -50 -4 -20 -16
-47 -26 -60 l-20 -23 15 30 c8 17 15 39 15 50 0 20 26 65 37 65 3 0 1 -6 -4
-12z m810 -55 c32 -63 39 -96 28 -125 -9 -20 -10 -19 -10 15 -1 20 -12 64 -25
97 -29 72 -25 78 7 13z m164 -5 c-3 -8 -6 -5 -6 6 -1 11 2 17 5 13 3 -3 4 -12
1 -19z m-326 -3 c24 -9 50 -13 59 -10 12 5 13 4 2 -6 -10 -11 -21 -11 -57 -1
-55 15 -90 15 -116 2 -10 -6 -19 -8 -19 -6 0 9 54 35 71 36 9 0 36 -7 60 -15z
m-431 -15 c0 -5 -4 -10 -10 -10 -5 0 -10 5 -10 10 0 6 5 10 10 10 6 0 10 -4
10 -10z m-940 -79 c0 -15 5 -32 12 -39 7 -7 9 -12 4 -12 -16 0 -31 26 -34 60
-2 19 -9 42 -15 50 -7 9 -2 5 11 -8 12 -13 22 -35 22 -51z m-390 63 c0 -10
-58 -90 -77 -105 -21 -16 -19 -12 35 57 17 23 29 44 25 48 -3 3 -1 6 5 6 7 0
12 -3 12 -6z m1600 -19 c-13 -14 -26 -22 -29 -19 -3 3 5 14 18 25 33 27 39 24
11 -6z m-1290 -10 c13 -14 21 -25 18 -25 -2 0 -15 11 -28 25 -13 14 -21 25
-18 25 2 0 15 -11 28 -25z m1806 -107 c4 -16 10 -28 15 -28 5 0 6 -7 2 -15 -3
-9 -7 -14 -9 -12 -8 7 -44 146 -43 164 0 17 21 -46 35 -109z m-1365 95 c13
-16 12 -17 -3 -4 -17 13 -22 21 -14 21 2 0 10 -8 17 -17z m-1061 -13 c0 -5 -4
-10 -10 -10 -5 0 -10 5 -10 10 0 6 5 10 10 10 6 0 10 -4 10 -10z m2187 -12
c-3 -8 -6 -5 -6 6 -1 11 2 17 5 13 3 -3 4 -12 1 -19z m-678 -2 c15 -8 34 -22
41 -31 8 -10 23 -21 35 -25 16 -7 12 -9 -18 -9 -21 -1 -36 3 -33 8 9 15 -42
54 -81 61 l-38 8 33 1 c18 0 45 -5 61 -13z m-266 -8 c-15 -7 -24 -21 -24 -37
-2 -24 -2 -25 -6 -3 -5 27 12 52 36 51 11 0 10 -3 -6 -11z m-650 -15 c-7 -2
-19 -2 -25 0 -7 3 -2 5 12 5 14 0 19 -2 13 -5z m-61 -49 c4 -30 2 -33 -8 -19
-11 15 -13 15 -17 -2 -3 -10 -4 -1 -3 19 1 48 22 49 28 2z m1233 26 c-3 -5 26
-11 72 -13 43 -2 31 -2 -27 0 -58 2 -113 4 -122 4 -10 0 -18 4 -18 10 0 5 23
9 51 9 29 0 48 -4 44 -10z m325 -6 c0 -8 -5 -12 -10 -9 -6 4 -8 11 -5 16 9 14
15 11 15 -7z m107 -36 c-2 -13 -4 -5 -4 17 -1 22 1 32 4 23 2 -10 2 -28 0 -40z
m-1121 28 c27 -8 60 -17 74 -19 21 -4 20 -4 -7 -6 -17 0 -44 4 -60 10 -15 6
-53 14 -83 18 -51 8 -52 9 -14 10 22 0 63 -5 90 -13z m-1016 -6 c0 -5 -8 -10
-17 -10 -15 0 -16 2 -3 10 19 12 20 12 20 0z m1388 3 c-10 -2 -26 -2 -35 0
-10 3 -2 5 17 5 19 0 27 -2 18 -5z m-1008 -40 c-5 -22 -23 -50 -47 -72 -28
-27 -31 -29 -11 -6 34 40 51 73 44 90 -3 8 0 16 7 19 7 2 13 5 13 5 1 1 -2
-15 -6 -36z m449 -10 c2 -2 -3 -3 -12 -3 -9 0 -29 12 -44 26 l-28 26 40 -23
c22 -12 42 -24 44 -26z m344 17 c3 -11 1 -18 -4 -14 -5 3 -9 12 -9 20 0 20 7
17 13 -6z m-958 -82 c-33 -34 -61 -64 -62 -67 -2 -2 -5 -2 -8 0 -4 5 114 129
124 129 3 0 -21 -28 -54 -62z m222 15 c-3 -10 -5 -2 -5 17 0 19 2 27 5 18 2
-10 2 -26 0 -35z m60 5 c-3 -7 -5 -2 -5 12 0 14 2 19 5 13 2 -7 2 -19 0 -25z
m903 17 c-7 -9 -15 -13 -19 -10 -3 3 1 10 9 15 21 14 24 12 10 -5z m225 -14
c3 -5 1 -12 -5 -16 -5 -3 -10 1 -10 9 0 18 6 21 15 7z m-595 -57 c0 -8 -5 -12
-10 -9 -6 4 -8 11 -5 16 9 14 15 11 15 -7z m337 -10 c3 -9 20 -22 37 -30 17
-7 25 -13 18 -14 -7 0 -22 5 -33 10 -32 17 -23 -9 22 -70 23 -30 32 -46 21
-36 -12 10 -36 42 -54 70 -18 28 -36 52 -40 54 -9 4 2 32 13 32 5 0 12 -7 16
-16z m-897 -19 c0 -8 -4 -15 -10 -15 -5 0 -10 7 -10 15 0 8 5 15 10 15 6 0 10
-7 10 -15z m410 -44 c21 -17 48 -31 60 -31 12 0 18 -4 15 -10 -9 -15 -41 -3
-93 33 -35 23 -55 29 -95 29 -38 1 -47 3 -32 9 39 17 104 3 145 -30z m-190 4
c-14 -8 -29 -14 -35 -14 -5 0 1 6 15 14 14 8 30 14 35 14 6 0 -1 -6 -15 -14z
m386 -160 c-4 -16 -17 -43 -31 -60 l-25 -30 21 37 c18 32 20 49 16 127 -2 50
-1 93 2 97 9 9 23 -136 17 -171z m398 149 c3 -8 2 -12 -4 -9 -6 3 -10 10 -10
16 0 14 7 11 14 -7z m-1053 -14 c10 -6 45 -15 77 -19 52 -8 53 -9 17 -10 l-40
-2 35 -19 c19 -11 32 -19 27 -20 -10 0 -147 69 -147 75 0 8 10 6 31 -5z m189
-10 c-8 -5 -24 -9 -35 -9 -16 1 -16 2 5 9 35 11 48 11 30 0z m660 -60 c-6 -11
-13 -20 -16 -20 -2 0 0 9 6 20 6 11 13 20 16 20 2 0 0 -9 -6 -20z m-685 -10
c13 -6 15 -9 5 -9 -8 0 -22 4 -30 9 -18 12 -2 12 25 0z m939 -23 l17 -28 -25
16 c-15 10 -23 22 -19 31 3 8 6 14 7 12 1 -2 10 -16 20 -31z m-887 7 c-3 -3
-12 -4 -19 -1 -8 3 -5 6 6 6 11 1 17 -2 13 -5z m101 -11 c-16 -2 -40 -2 -55 0
-16 2 -3 4 27 4 30 0 43 -2 28 -4z m239 -55 c-3 -8 -6 -5 -6 6 -1 11 2 17 5
13 3 -3 4 -12 1 -19z m-109 -23 c-3 -3 -9 2 -12 12 -6 14 -5 15 5 6 7 -7 10
-15 7 -18z"/>
<path d="M1623 2599 c-19 -19 -16 -27 20 -49 46 -28 73 -26 81 6 4 15 3 31 -2
36 -16 16 -86 21 -99 7z"/>
<path d="M1760 2544 c0 -20 4 -25 16 -20 9 3 25 6 37 6 21 0 21 1 -3 20 -34
27 -50 25 -50 -6z"/>
<path d="M3045 2254 c-263 -211 -455 -416 -455 -486 0 -25 3 -28 34 -28 20 0
69 17 117 42 119 59 258 198 317 315 39 79 58 150 50 188 -2 14 -14 9 -63 -31z"/>
</g>
</svg>
